<mxfile host="app.diagrams.net" modified="2023-09-04T04:55:20.635Z" agent="Mozilla/5.0 (X11; Ubuntu; Linux x86_64; rv:109.0) Gecko/20100101 Firefox/117.0" etag="7OJstDDg7AsPAMQNoEW-" version="21.7.2" type="github">
  <diagram name="Page-1" id="74b105a0-9070-1c63-61bc-23e55f88626e">
    <mxGraphModel dx="1194" dy="826" grid="1" gridSize="10" guides="1" tooltips="1" connect="1" arrows="1" fold="1" page="1" pageScale="1.5" pageWidth="1169" pageHeight="826" background="none" math="0" shadow="0">
      <root>
        <mxCell id="0" style=";html=1;" />
        <mxCell id="1" style=";html=1;" parent="0" />
        <mxCell id="mXzzNm__Lwrdr8xzUZzV-24" style="edgeStyle=orthogonalEdgeStyle;rounded=0;orthogonalLoop=1;jettySize=auto;html=1;entryX=0;entryY=0.5;entryDx=0;entryDy=0;" edge="1" parent="1" source="mXzzNm__Lwrdr8xzUZzV-8" target="mXzzNm__Lwrdr8xzUZzV-22">
          <mxGeometry relative="1" as="geometry" />
        </mxCell>
        <mxCell id="mXzzNm__Lwrdr8xzUZzV-8" value="" style="rounded=1;whiteSpace=wrap;html=1;" vertex="1" parent="1">
          <mxGeometry x="760" y="470" width="490" height="350" as="geometry" />
        </mxCell>
        <mxCell id="mXzzNm__Lwrdr8xzUZzV-2" style="edgeStyle=orthogonalEdgeStyle;rounded=0;orthogonalLoop=1;jettySize=auto;html=1;" edge="1" parent="1" source="10b056a9c633e61c-4">
          <mxGeometry relative="1" as="geometry">
            <mxPoint x="440" y="635" as="targetPoint" />
          </mxGeometry>
        </mxCell>
        <mxCell id="mXzzNm__Lwrdr8xzUZzV-20" style="edgeStyle=orthogonalEdgeStyle;rounded=0;orthogonalLoop=1;jettySize=auto;html=1;entryX=0;entryY=0.411;entryDx=0;entryDy=0;entryPerimeter=0;" edge="1" parent="1" source="10b056a9c633e61c-4" target="mXzzNm__Lwrdr8xzUZzV-17">
          <mxGeometry relative="1" as="geometry">
            <Array as="points">
              <mxPoint x="250" y="297" />
            </Array>
          </mxGeometry>
        </mxCell>
        <mxCell id="10b056a9c633e61c-4" value="" style="strokeWidth=2;dashed=0;align=center;fontSize=12;shape=rect;verticalLabelPosition=bottom;verticalAlign=top;fillColor=#c0f5a9" parent="1" vertex="1">
          <mxGeometry x="172" y="590" width="150" height="90" as="geometry" />
        </mxCell>
        <mxCell id="10b056a9c633e61c-30" value="Medicinal Plant Identification" style="text;strokeColor=none;fillColor=none;html=1;fontSize=24;fontStyle=1;verticalAlign=middle;align=center;" parent="1" vertex="1">
          <mxGeometry x="80" y="40" width="1590" height="40" as="geometry" />
        </mxCell>
        <mxCell id="mXzzNm__Lwrdr8xzUZzV-1" value="Data" style="text;html=1;strokeColor=none;fillColor=none;align=center;verticalAlign=middle;whiteSpace=wrap;rounded=0;" vertex="1" parent="1">
          <mxGeometry x="210" y="620" width="60" height="30" as="geometry" />
        </mxCell>
        <mxCell id="mXzzNm__Lwrdr8xzUZzV-10" style="edgeStyle=orthogonalEdgeStyle;rounded=0;orthogonalLoop=1;jettySize=auto;html=1;entryX=0;entryY=0.5;entryDx=0;entryDy=0;" edge="1" parent="1" source="mXzzNm__Lwrdr8xzUZzV-4" target="mXzzNm__Lwrdr8xzUZzV-9">
          <mxGeometry relative="1" as="geometry" />
        </mxCell>
        <mxCell id="mXzzNm__Lwrdr8xzUZzV-4" value="" style="strokeWidth=2;dashed=0;align=center;fontSize=12;shape=rect;verticalLabelPosition=bottom;verticalAlign=top;fillColor=#c0f5a9" vertex="1" parent="1">
          <mxGeometry x="440" y="590" width="150" height="90" as="geometry" />
        </mxCell>
        <mxCell id="mXzzNm__Lwrdr8xzUZzV-5" value="Training Dataset" style="text;html=1;strokeColor=none;fillColor=none;align=center;verticalAlign=middle;whiteSpace=wrap;rounded=0;" vertex="1" parent="1">
          <mxGeometry x="485" y="620" width="60" height="30" as="geometry" />
        </mxCell>
        <mxCell id="mXzzNm__Lwrdr8xzUZzV-14" style="edgeStyle=orthogonalEdgeStyle;rounded=0;orthogonalLoop=1;jettySize=auto;html=1;" edge="1" parent="1" source="mXzzNm__Lwrdr8xzUZzV-9" target="mXzzNm__Lwrdr8xzUZzV-12">
          <mxGeometry relative="1" as="geometry" />
        </mxCell>
        <mxCell id="mXzzNm__Lwrdr8xzUZzV-9" value="" style="strokeWidth=2;dashed=0;align=center;fontSize=12;shape=rect;verticalLabelPosition=bottom;verticalAlign=top;fillColor=#c0f5a9" vertex="1" parent="1">
          <mxGeometry x="830" y="590" width="150" height="90" as="geometry" />
        </mxCell>
        <mxCell id="mXzzNm__Lwrdr8xzUZzV-11" value="Algorithm" style="text;html=1;strokeColor=none;fillColor=none;align=center;verticalAlign=middle;whiteSpace=wrap;rounded=0;" vertex="1" parent="1">
          <mxGeometry x="875" y="620" width="60" height="30" as="geometry" />
        </mxCell>
        <mxCell id="mXzzNm__Lwrdr8xzUZzV-16" style="edgeStyle=orthogonalEdgeStyle;rounded=0;orthogonalLoop=1;jettySize=auto;html=1;entryX=0.306;entryY=0.6;entryDx=0;entryDy=0;entryPerimeter=0;" edge="1" parent="1" source="mXzzNm__Lwrdr8xzUZzV-12" target="mXzzNm__Lwrdr8xzUZzV-8">
          <mxGeometry relative="1" as="geometry">
            <Array as="points">
              <mxPoint x="1135" y="740" />
              <mxPoint x="910" y="740" />
            </Array>
          </mxGeometry>
        </mxCell>
        <mxCell id="mXzzNm__Lwrdr8xzUZzV-12" value="" style="strokeWidth=2;dashed=0;align=center;fontSize=12;shape=rect;verticalLabelPosition=bottom;verticalAlign=top;fillColor=#c0f5a9" vertex="1" parent="1">
          <mxGeometry x="1060" y="590" width="150" height="90" as="geometry" />
        </mxCell>
        <mxCell id="mXzzNm__Lwrdr8xzUZzV-15" value="Evaluation" style="text;html=1;strokeColor=none;fillColor=none;align=center;verticalAlign=middle;whiteSpace=wrap;rounded=0;" vertex="1" parent="1">
          <mxGeometry x="1105" y="620" width="60" height="30" as="geometry" />
        </mxCell>
        <mxCell id="mXzzNm__Lwrdr8xzUZzV-21" style="edgeStyle=orthogonalEdgeStyle;rounded=0;orthogonalLoop=1;jettySize=auto;html=1;" edge="1" parent="1" source="mXzzNm__Lwrdr8xzUZzV-17" target="mXzzNm__Lwrdr8xzUZzV-12">
          <mxGeometry relative="1" as="geometry" />
        </mxCell>
        <mxCell id="mXzzNm__Lwrdr8xzUZzV-17" value="" style="strokeWidth=2;dashed=0;align=center;fontSize=12;shape=rect;verticalLabelPosition=bottom;verticalAlign=top;fillColor=#c0f5a9" vertex="1" parent="1">
          <mxGeometry x="340" y="260" width="150" height="90" as="geometry" />
        </mxCell>
        <mxCell id="mXzzNm__Lwrdr8xzUZzV-18" value="Testing Dataset" style="text;html=1;strokeColor=none;fillColor=none;align=center;verticalAlign=middle;whiteSpace=wrap;rounded=0;" vertex="1" parent="1">
          <mxGeometry x="380" y="290" width="60" height="30" as="geometry" />
        </mxCell>
        <mxCell id="mXzzNm__Lwrdr8xzUZzV-27" style="edgeStyle=orthogonalEdgeStyle;rounded=0;orthogonalLoop=1;jettySize=auto;html=1;exitX=0.5;exitY=0;exitDx=0;exitDy=0;entryX=0.5;entryY=1;entryDx=0;entryDy=0;" edge="1" parent="1" source="mXzzNm__Lwrdr8xzUZzV-22" target="mXzzNm__Lwrdr8xzUZzV-26">
          <mxGeometry relative="1" as="geometry">
            <Array as="points">
              <mxPoint x="1530" y="600" />
            </Array>
          </mxGeometry>
        </mxCell>
        <mxCell id="mXzzNm__Lwrdr8xzUZzV-22" value="" style="strokeWidth=2;dashed=0;align=center;fontSize=12;shape=rect;verticalLabelPosition=bottom;verticalAlign=top;fillColor=#c0f5a9" vertex="1" parent="1">
          <mxGeometry x="1460" y="600" width="150" height="90" as="geometry" />
        </mxCell>
        <mxCell id="mXzzNm__Lwrdr8xzUZzV-23" value="Model" style="text;html=1;strokeColor=none;fillColor=none;align=center;verticalAlign=middle;whiteSpace=wrap;rounded=0;" vertex="1" parent="1">
          <mxGeometry x="1505" y="630" width="60" height="30" as="geometry" />
        </mxCell>
        <mxCell id="mXzzNm__Lwrdr8xzUZzV-25" value="" style="rounded=1;whiteSpace=wrap;html=1;" vertex="1" parent="1">
          <mxGeometry x="1470" y="450" width="120" height="30" as="geometry" />
        </mxCell>
        <mxCell id="mXzzNm__Lwrdr8xzUZzV-26" value="Prediction" style="text;html=1;strokeColor=none;fillColor=none;align=center;verticalAlign=middle;whiteSpace=wrap;rounded=0;" vertex="1" parent="1">
          <mxGeometry x="1500" y="450" width="60" height="30" as="geometry" />
        </mxCell>
        <mxCell id="mXzzNm__Lwrdr8xzUZzV-28" value="" style="rounded=1;whiteSpace=wrap;html=1;" vertex="1" parent="1">
          <mxGeometry x="1470" y="800" width="120" height="50" as="geometry" />
        </mxCell>
        <mxCell id="mXzzNm__Lwrdr8xzUZzV-30" value="" style="edgeStyle=orthogonalEdgeStyle;rounded=0;orthogonalLoop=1;jettySize=auto;html=1;" edge="1" parent="1" source="mXzzNm__Lwrdr8xzUZzV-29" target="mXzzNm__Lwrdr8xzUZzV-22">
          <mxGeometry relative="1" as="geometry">
            <Array as="points">
              <mxPoint x="1530" y="710" />
              <mxPoint x="1530" y="710" />
            </Array>
          </mxGeometry>
        </mxCell>
        <mxCell id="mXzzNm__Lwrdr8xzUZzV-29" value="Production Data" style="text;html=1;strokeColor=none;fillColor=none;align=center;verticalAlign=middle;whiteSpace=wrap;rounded=0;" vertex="1" parent="1">
          <mxGeometry x="1500" y="810" width="60" height="30" as="geometry" />
        </mxCell>
      </root>
    </mxGraphModel>
  </diagram>
</mxfile>
